/* XPM */
static char *_568509491928[] = {
/* columns rows colors chars-per-pixel */
"256 64 21 1 ",
"  c #980088",
". c #FC9840",
"X c #4040FC",
"o c #FCB080",
"O c #FCCCB0",
"+ c #ECECEC",
"@ c #7C80FC",
"# c #B8BCFC",
"$ c #FCD8C4",
"% c #B4B4B4",
"& c #646464",
"* c #484848",
"= c #D8D8FC",
"- c #000000",
"; c #FC8820",
": c #FC7800",
"> c #E46C00",
", c #006CB4",
"< c #5c5c5c",
"1 c #545454",
"2 c #FFFFFF",
/* pixels */
"                            .........                                                       .........                                                       XXXXXXXXX                                                       XXXXXXXXX                           ",
"                        .................                                               .................                                               XXXXXXXXXXXXXXXXX                                               XXXXXXXXXXXXXXXXX                       ",
"                      .....................                                           .....................                                           XXXXXXXXXXXXXXXXXXXXX                                           XXXXXXXXXXXXXXXXXXXXX                     ",
"                    .........................                                       .........................                                       XXXXXXXXXXXXXXXXXXXXXXXXX                                       XXXXXXXXXXXXXXXXXXXXXXXXX                   ",
"                   ...........................                                     ...........................                                     XXXXXXXXXXXXXXXXXXXXXXXXXXX                                     XXXXXXXXXXXXXXXXXXXXXXXXXXX                  ",
"                 ...............................                                 ...............................                                 XXXXXXXXXXXXXXXXXXXXXXXXXXXXXXX                                 XXXXXXXXXXXXXXXXXXXXXXXXXXXXXXX                ",
"                .................................                               .................................                               XXXXXXXXXXXXXXXXXXXXXXXXXXXXXXXXX                               XXXXXXXXXXXXXXXXXXXXXXXXXXXXXXXXX               ",
"               ...................................                             ...................................                             XXXXXXXXXXXXXXXXXXXXXXXXXXXXXXXXXXX                             XXXXXXXXXXXXXXXXXXXXXXXXXXXXXXXXXXX              ",
"              .....................................                           .....................................                           XXXXXXXXXXXXXXXXXXXXXXXXXXXXXXXXXXXXX                           XXXXXXXXXXXXXXXXXXXXXXXXXXXXXXXXXXXXX             ",
"              .....................................                           .....................................                           XXXXXXXXXXXXXXXXXXXXXXXXXXXXXXXXXXXXX                           XXXXXXXXXXXXXXXXXXXXXXXXXXXXXXXXXXXXX             ",
"             .......................................                         .......................................                         XXXXXXXXXXXXXXXXXXXXXXXXXXXXXXXXXXXXXXX                         XXXXXXXXXXXXXXXXXXXXXXXXXXXXXXXXXXXXXXX            ",
"            .........................................                       .........................................                       XXXXXXXXXXXXXXXXXXXXXXXXXXXXXXXXXXXXXXXXX                       XXXXXXXXXXXXXXXXXXXXXXXXXXXXXXXXXXXXXXXXX           ",
"            .........................................                       .........................................                       XXXXXXXXXXXXXXXXXXXXXXXXXXXXXXXXXXXXXXXXX                       XXXXXXXXXXXXXXXXXXXXXXXXXXXXXXXXXXXXXXXXX           ",
"           ...........................................                     ...........................................                     XXXXXXXXXXXXXXXXXXXXXXXXXXXXXXXXXXXXXXXXXXX                     XXXXXXXXXXXXXXXXXXXXXXXXXXXXXXXXXXXXXXXXXXX          ",
"           .......oO+++Oo................oO+++Oo......                     .......oO+++Oo................oO+++Oo......                     XXXXXXX@#+++#@XXXXXXXXXXXXXXXX@#+++#@XXXXXX                     XXXXXXX@#+++#@XXXXXXXXXXXXXXXX@#+++#@XXXXXX          ",
"          .......$+++++++$..............$+++++++$......                   .......$+++++++$..............$+++++++$......                   XXXXXXX#+++++++#XXXXXXXXXXXXXX#+++++++#XXXXXX                   XXXXXXX#+++++++#XXXXXXXXXXXXXX#+++++++#XXXXXX         ",
"          ......+++++++++++............+++++++++++.....                   ......+++++++++++............+++++++++++.....                   XXXXXX+++%&*&%++=XXXXXXXXXXXX++++++++++=XXXXX                   XXXXXX++++++++++=XXXXXXXXXXXX++++++++++=XXXXX         ",
"          .....+++++++++++++..........+++++++++++++....                   .....+++++++++++++..........+++++++++++++....                   XXXXX++++&---&++++XXXXXXXXXX+++++++++++++XXXX                   XXXXX+++++++++++++XXXXXXXXXX+++++++++++++XXXX         ",
"          ....$+++++++++++++$........$+++++++++++++$...                   ....$+++++++++++++$........$+++++++++++++$...                   XXXX#++++*---*++++#XXXXXXXX#+++++++++++++#XXX                   XXXX#+++++++++++++#XXXXXXXX#+++++++++++++#XXX         ",
"         ....o+++++++++++++++o......o+++++++++++++++o...                 ....o+++++++++++++++o......o+++++++++++++++o...                 XXXX@+++++&---&+++++@XXXXXX@+++++++++++++++@XXX                 XXXX@+++++++++++++++@XXXXXX@+++++++++++++++@XXX        ",
"         ....O+%&*&%+++++++++O......O+++++++++%&*&%+O...                 ....O+++++%&*&%+++++O......O+++++%&*&%+++++O...                 XXXX#+++++%&*&%+++++#XXXXXX#+++++++++++++++#XXX                 XXXX#+++++%&*&%+++++#XXXXXX#+++++%&*&%+++++#XXX        ",
"         ....++&---&++++++++++......++++++++++&---&++...                 ....++++++&---&++++++......++++++&---&++++++...                 XXXX+++++++++++++++++XXXXXX+++++++++++++++++XXX                 XXXX++++++&---&++++++XXXXXX++++++&---&++++++XXX        ",
"         ....++*---*++++++++++......++++++++++*---*++...                 ....++++++*---*++++++......++++++*---*++++++...                 XXXX+++++++++++++++++XXXXXX+++++++++++++++++XXX                 XXXX++++++*---*++++++XXXXXX++++++*---*++++++XXX        ",
"         ....++&---&++++++++++......++++++++++&---&++...                 ....++++++&---&++++++......++++++&---&++++++...                 XXXX+++++++++++++++++XXXXXX+++++++++++++++++XXX                 XXXX++++++&---&++++++XXXXXX++++++&---&++++++XXX        ",
"         ....O+%&*&%+++++++++O......O+++++++++%&*&%+O...                 ....O+++++%&*&%+++++O......O+++++%&*&%+++++O...                 XXXX#+++++++++++++++#XXXXXX#+++++%&*&%+++++#XXX                 XXXX#+++++%&*&%+++++#XXXXXX#+++++%&*&%+++++#XXX        ",
"         ....o+++++++++++++++o......o+++++++++++++++o...                 ....o+++++++++++++++o......o+++++++++++++++o...                 XXXX@+++++++++++++++@XXXXXX@+++++&---&+++++@XXX                 XXXX@+++++++++++++++@XXXXXX@+++++++++++++++@XXX        ",
"         .....$+++++++++++++$........$+++++++++++++$....                 .....$+++++++++++++$........$+++++++++++++$....                 XXXXX#+++++++++++++#XXXXXXXX#++++*---*++++#XXXX                 XXXXX#+++++++++++++#XXXXXXXX#+++++++++++++#XXXX        ",
"         ......+++++++++++++..........+++++++++++++.....                 ......+++++++++++++..........+++++++++++++.....                 XXXXXX+++++++++++++XXXXXXXXXX++++&---&++++XXXXX                 XXXXXX+++++++++++++XXXXXXXXXX+++++++++++++XXXXX        ",
"         .......+++++++++++............+++++++++++......                 .......+++++++++++............+++++++++++......                 XXXXXXX+++++++++++XXXXXXXXXXXX+++%&*&%+++XXXXXX                 XXXXXXX+++++++++++XXXXXXXXXXXX+++++++++++XXXXXX        ",
"         ........$+++++++$..............$+++++++$.......                 ........$+++++++$..............$+++++++$.......                 XXXXXXXX#+++++++#XXXXXXXXXXXXXX#+++++++#XXXXXXX                 XXXXXXXX#+++++++#XXXXXXXXXXXXXX#+++++++#XXXXXXX        ",
"         .........oO+++Oo................oO+++Oo........                 .........oO+++Oo................oO+++Oo........                 XXXXXXXXX@#+++#@XXXXXXXXXXXXXXXX@#+++#@XXXXXXXX                 XXXXXXXXX@#+++#@XXXXXXXXXXXXXXXX@#+++#@XXXXXXXX        ",
"         ...............................................                 ...............................................                 XXXXXXXXXXXXXXXXXXXXXXXXXXXXXXXXXXXXXXXXXXXXXXX                 XXXXXXXXXXXXXXXXXXXXXXXXXXXXXXXXXXXXXXXXXXXXXXX        ",
"         ...............................................                 ...............................................                 XXXXXXXXXXXXXXXXXXXXXXXXXXXXXXXXXXXXXXXXXXXXXXX                 XXXXXXXXXXXXXXXXXXXXXXXXXXXXXXXXXXXXXXXXXXXXXXX        ",
"         ...............................................                 ...............................................                 XXXXXXXXXXXXXXXXXXXXXXXXXXXXXXXXXXXXXXXXXXXXXXX                 XXXXXXXXXXXXXXXXXXXXXXXXXXXXXXXXXXXXXXXXXXXXXXX        ",
"         ...............................................                 ...............................................                 XXXXXXXXXXXXXXXXXXXXXXXXXXXXXXXXXXXXXXXXXXXXXXX                 XXXXXXXXXXXXXXXXXXXXXXXXXXXXXXXXXXXXXXXXXXXXXXX        ",
"         ...............................................                 ...............................................                 XXXXXXXXXXXXXXXXXXXXXXXXXXXXXXXXXXXXXXXXXXXXXXX                 XXXXXXXXXXXXXXXXXXXXXXXXXXXXXXXXXXXXXXXXXXXXXXX        ",
"         ...............................................                 ...............................................                 XXXXXXXXXXXXXXXXXXXXXXXXXXXXXXXXXXXXXXXXXXXXXXX                 XXXXXXXXXXXXXXXXXXXXXXXXXXXXXXXXXXXXXXXXXXXXXXX        ",
"         ...............................................                 ...............................................                 XXXXXXXXXXXXXXXXXXXXXXXXXXXXXXXXXXXXXXXXXXXXXXX                 XXXXXXXXXXXXXXXXXXXXXXXXXXXXXXXXXXXXXXXXXXXXXXX        ",
"         ...............................................                 ...............................................                 XXXXXXXXXXXXXXXXXXXXXXXXXXXXXXXXXXXXXXXXXXXXXXX                 XXXXXXXXXXXXXXXXXXXXXXXXXXXXXXXXXXXXXXXXXXXXXXX        ",
"         ...............................................                 ...............................................                 XXXXXXXXXXXXXXXXXXXXXXXXXXXXXXXXXXXXXXXXXXXXXXX                 XXXXXXXXXXXXXXXXXXXXXXXXXXXXXXXXXXXXXXXXXXXXXXX        ",
"         ...............................................                 ...............................................                 XXXXXXXXXXXXXXXXXXXXXXXXXXXXXXXXXXXXXXXXXXXXXXX                 XXXXXXXXXXXXXXXXXXXXXXXXXXXXXXXXXXXXXXXXXXXXXXX        ",
"         ...............................................                 ...............................................                 XXXXXXXXXXXXXXXXXXXXXXXXXXXXXXXXXXXXXXXXXXXXXXX                 XXXXXXXXXXXXXXXXXXXXXXXXXXXXXXXXXXXXXXXXXXXXXXX        ",
"         ...............................................                 ...............................................                 XXXXXXXXXXXXXXXXXXXXXXXXXXXXXXXXXXXXXXXXXXXXXXX                 XXXXXXXXXXXXXXXXXXXXXXXXXXXXXXXXXXXXXXXXXXXXXXX        ",
"         ...............................................                 ...............................................                 XXXXXXXXXXXXXXXXXXXXXXXXXXXXXXXXXXXXXXXXXXXXXXX                 XXXXXXXXXXXXXXXXXXXXXXXXXXXXXXXXXXXXXXXXXXXXXXX        ",
"         ...............................................                 ...............................................                 XXXXXXXXXXXXXXXXXXXXXXXXXXXXXXXXXXXXXXXXXXXXXXX                 XXXXXXXXXXXXXXXXXXXXXXXXXXXXXXXXXXXXXXXXXXXXXXX        ",
"         ...............................................                 ...............................................                 XXXXXXXXXXXXXXXXXXXXXXXXXXXXXXXXXXXXXXXXXXXXXXX                 XXXXXXXXXXXXXXXXXXXXXXXXXXXXXXXXXXXXXXXXXXXXXXX        ",
"         ...............................................                 ...............................................                 XXXXXXXXXXXXXXXXXXXXXXXXXXXXXXXXXXXXXXXXXXXXXXX                 XXXXXXXXXXXXXXXXXXXXXXXXXXXXXXXXXXXXXXXXXXXXXXX        ",
"         ...............................................                 ...............................................                 XXXXXXXXXXXXXXXXXXXXXXXXXXXXXXXXXXXXXXXXXXXXXXX                 XXXXXXXXXXXXXXXXXXXXXXXXXXXXXXXXXXXXXXXXXXXXXXX        ",
"         ...............................................                 ...............................................                 XXXXXXXXXXXXXXXXXXXXXXXXXXXXXXXXXXXXXXXXXXXXXXX                 XXXXXXXXXXXXXXXXXXXXXXXXXXXXXXXXXXXXXXXXXXXXXXX        ",
"         ...............................................                 ...............................................                 XXXXXXXXXXXXXXXXXXXXXXXXXXXXXXXXXXXXXXXXXXXXXXX                 XXXXXXXXXXXXXXXXXXXXXXXXXXXXXXXXXXXXXXXXXXXXXXX        ",
"         ...............................................                 ...............................................                 XXXXXXXXXXXXXXXXXXXXXXXXXXXXXXXXXXXXXXXXXXXXXXX                 XXXXXXXXXXXXXXXXXXXXXXXXXXXXXXXXXXXXXXXXXXXXXXX        ",
"         ...............................................                 ...............................................                 XXXXXXXXXXXXXXXXXXXXXXXXXXXXXXXXXXXXXXXXXXXXXXX                 XXXXXXXXXXXXXXXXXXXXXXXXXXXXXXXXXXXXXXXXXXXXXXX        ",
"         ...............................................                 ...............................................                 XXXXXXXXXXXXXXXXXXXXXXXXXXXXXXXXXXXXXXXXXXXXXXX                 XXXXXXXXXXXXXXXXXXXXXXXXXXXXXXXXXXXXXXXXXXXXXXX        ",
"         ;.............................................;                 ...............................................                 XXXXXXXXXXXXXXXXXXXXXXXXXXXXXXXXXXXXXXXXXXXXXXX                 XXXXXXXXXXXXXXXXXXXXXXXXXXXXXXXXXXXXXXXXXXXXXXX        ",
"         :.............................................:                 ...............................................                 XXXXXXXXXXXXXXXXXXXXXXXXXXXXXXXXXXXXXXXXXXXXXXX                 XXXXXXXXXXXXXXXXXXXXXXXXXXXXXXXXXXXXXXXXXXXXXXX        ",
"          :...........................................;                  ..:>  >:......................................;                  XXXXXXXXXXXXXXXXXXXXXXXXXXXXXXXXXXXXXXXXXXXXX,                 XXX,  ,XXXXXXXXXXXXXXXXXXXXXXXXXXXXXXXXXXXXXXXX        ",
"           :......;:>     >:;...........;:>    >:;..;:                   ;:      >:...........;:>      >:;.............:                  ,XXXXXXXXXX,   ,XXXXXXXXXXXXXXXXX,  ,XXXXXXX,                  XX,     ,XXXXXXXXXXXXXX,      ,XXXXXXXXXXXXXXXX        ",
"            :;.;:>            >:;....;:>                                           >:;.....;:>            >:;.......;:>                    ,XXXXXX,          ,XXXXXXXXXX,                                          ,XXXXXXXXX,            ,XXXXXXXXXXX,         ",
"                                                                                                                                                                                                                                                                ",
"             &&&&<<<1111111111111111111111111111111111111<<<&1               &&&&<<<1111111111111111111111111111111111111<<<&1               &&&&<<<1111111111111111111111111111111111111<<<&1               &&&&<<<1111111111111111111111111111111111111<<<&1  ",
"            &&<111*******************************************1&             &&<111*******************************************1&             &&<111*******************************************1&             &&<111*******************************************1& ",
"            &&<111*******************************************1&             &&<111*******************************************1&             &&<111*******************************************1&             &&<111*******************************************1& ",
"               &&&&<<<11111111111111111111111111111111111111&&                 &&&&<<<11111111111111111111111111111111111111&&                 &&&&<<<11111111111111111111111111111111111111&&                 &&&&<<<11111111111111111111111111111111111111&&  ",
"                                                                                                                                                                                                                                                                "
};
