/* XPM */
static char *_568509481661[] = {
/* columns rows colors chars-per-pixel */
"256 64 16 1 ",
"  c #980088",
". c #BC0000",
"X c #FC5C5C",
"o c #FC7C7C",
"O c #FCB8B8",
"+ c #ECECEC",
"@ c #FC9C9C",
"# c #B4B4B4",
"$ c #646464",
"% c #484848",
"& c #000000",
"* c #FCD8D8",
"= c #E00000",
"- c #5c5c5c",
"; c #545454",
": c #FFFFFF",
/* pixels */
"                                                                                                                                                                                                                                                                ",
"                            .........                                                       .........                                                       XXXXXXXXX                                                       XXXXXXXXX                           ",
"                        .................                                               .................                                               XXXXXXXXXXXXXXXXX                                               XXXXXXXXXXXXXXXXX                       ",
"                      .....................                                           .....................                                           XXXXXXXXXXXXXXXXXXXXX                                           XXXXXXXXXXXXXXXXXXXXX                     ",
"                    .........................                                       .........................                                       XXXXXXXXXXXXXXXXXXXXXXXXX                                       XXXXXXXXXXXXXXXXXXXXXXXXX                   ",
"                   ...........................                                     ...........................                                     XXXXXXXXXXXXXXXXXXXXXXXXXXX                                     XXXXXXXXXXXXXXXXXXXXXXXXXXX                  ",
"                 ...............................                                 ...............................                                 XXXXXXXXXXXXXXXXXXXXXXXXXXXXXXX                                 XXXXXXXXXXXXXXXXXXXXXXXXXXXXXXX                ",
"                .................................                               .................................                               XXXXXXXXXXXXXXXXXXXXXXXXXXXXXXXXX                               XXXXXXXXXXXXXXXXXXXXXXXXXXXXXXXXX               ",
"               ...................................                             ...................................                             XXXXXXXXXXXXXXXXXXXXXXXXXXXXXXXXXXX                             XXXXXXXXXXXXXXXXXXXXXXXXXXXXXXXXXXX              ",
"              .....................................                           .....................................                           XXXXXXXXXXXXXXXXXXXXXXXXXXXXXXXXXXXXX                           XXXXXXXXXXXXXXXXXXXXXXXXXXXXXXXXXXXXX             ",
"              .....................................                           .....................................                           XXXXXXXXXXXXXXXXXXXXXXXXXXXXXXXXXXXXX                           XXXXXXXXXXXXXXXXXXXXXXXXXXXXXXXXXXXXX             ",
"             .......................................                         .......................................                         XXXXXXXXXXXXXXXXXXXXXXXXXXXXXXXXXXXXXXX                         XXXXXXXXXXXXXXXXXXXXXXXXXXXXXXXXXXXXXXX            ",
"            .........................................                       .........................................                       XXXXXXXXXXXXXXXXXXXXXXXXXXXXXXXXXXXXXXXXX                       XXXXXXXXXXXXXXXXXXXXXXXXXXXXXXXXXXXXXXXXX           ",
"            .........................................                       .........................................                       XXXXXXXXXXXXXXXXXXXXXXXXXXXXXXXXXXXXXXXXX                       XXXXXXXXXXXXXXXXXXXXXXXXXXXXXXXXXXXXXXXXX           ",
"           ...........................................                     ...........................................                     XXXXXXXXXXXXXXXXXXXXXXXXXXXXXXXXXXXXXXXXXXX                     XXXXXXXXXXXXXXXXXXXXXXXXXXXXXXXXXXXXXXXXXXX          ",
"           .......oO+++Oo................oO+++Oo......                     .......oO+++Oo................oO+++Oo......                     XXXXXXXo@+++@oXXXXXXXXXXXXXXXXo@+++@oXXXXXX                     XXXXXXXo@+++@oXXXXXXXXXXXXXXXXo@+++@oXXXXXX          ",
"          ......oO+++++++Oo............oO+++++++Oo.....                   ......oO+++++++Oo............oO+++++++Oo.....                   XXXXXXX@+++++++@XXXXXXXXXXXXXX@+++++++@XXXXXX                   XXXXXXX@+++++++@XXXXXXXXXXXXXX@+++++++@XXXXXX         ",
"          .....o+++++++++++o..........o+++++++++++o....                   .....o+++++++++++o..........o+++++++++++o....                   XXXXXX+++++++++++XXXXXXXXXXXX+++#$%$#+++XXXXX                   XXXXXX+++++++++++XXXXXXXXXXXX+++++++++++XXXXX         ",
"          ....o+++++++++++++o........o+++++++++++++o...                   ....o+++++++++++++o........o+++++++++++++o...                   XXXXX+++++++++++++XXXXXXXXXX++++$&&&$++++XXXX                   XXXXX+++++++++++++XXXXXXXXXX+++++++++++++XXXX         ",
"          ....O+++++++++++++O........O++++++++++++++...                   ....O+++++++++++++O........O++++++++++++++...                   XXXX@+++++++++++++@XXXXXXXX@++++%&&&%++++@XXX                   XXXX@+++++++++++++@XXXXXXXX@+++++++++++++@XXX         ",
"         ....o+++++++++++++++o......o+++++++++++++++o...                 ....o+++++++++++++++o......o+++++++++++++++o...                 XXXXo+++++++++++++++oXXXXXXo+++++$&&&$+++++oXXX                 XXXXo+++++++++++++++oXXXXXXo+++++++++++++++oXXX        ",
"         ....O++++++++++#$%$#O......O#$%$#++++++++++O...                 ....O+++++#$%$#+++++O......O+++++#$%$#+++++O...                 XXXX@+++++++++++++++@XXXXXX@+++++#$%$#+++++@XXX                 XXXX@+++++#$%$#+++++@XXXXXX@+++++#$%$#+++++@XXX        ",
"         ....+++++++++++$&&&$+......+$&&&$+++++++++++...                 ....++++++$&&&$++++++......++++++$&&&$++++++...                 XXXX*++++++++++++++++XXXXXX*++++++++++++++++XXX                 XXXX*+++++$&&&$++++++XXXXXX*+++++$&&&$++++++XXX        ",
"         ....+++++++++++%&&&%+......+%&&&%+++++++++++...                 ....++++++%&&&%++++++......++++++%&&&%++++++...                 XXXX+++++++++++++++++XXXXXX+++++++++++++++++XXX                 XXXX++++++%&&&%++++++XXXXXX++++++%&&&%++++++XXX        ",
"         ....+++++++++++$&&&$+......+$&&&$+++++++++++...                 ....++++++$&&&$++++++......++++++$&&&$++++++...                 XXXX*++++++++++++++++XXXXXX*++++++++++++++++XXX                 XXXX*+++++$&&&$++++++XXXXXX*+++++$&&&$++++++XXX        ",
"         ....O++++++++++#$%$#O......O#$%$#++++++++++O...                 ....O+++++#$%$#+++++O......O+++++#$%$#+++++O...                 XXXX@+++++#$%$#+++++@XXXXXX@+++++++++++++++@XXX                 XXXX@+++++#$%$#+++++@XXXXXX@+++++#$%$#+++++@XXX        ",
"         ....o+++++++++++++++o......o+++++++++++++++o...                 ....o+++++++++++++++o......o+++++++++++++++o...                 XXXXX+++++$&&&$+++++oXXXXXXX+++++++++++++++oXXX                 XXXXX+++++++++++++++oXXXXXXX+++++++++++++++oXXX        ",
"         .....O+++++++++++++O........O+++++++++++++O....                 .....O+++++++++++++O........O+++++++++++++O....                 XXXXX@++++%&&&%++++@XXXXXXXX@+++++++++++++@XXXX                 XXXXX@+++++++++++++@XXXXXXXX@+++++++++++++@XXXX        ",
"         .....o+++++++++++++o........o+++++++++++++o....                 .....o+++++++++++++o........o+++++++++++++o....                 XXXXXX++++$&&&$++++XXXXXXXXXX+++++++++++++XXXXX                 XXXXXX+++++++++++++XXXXXXXXXX+++++++++++++XXXXX        ",
"         ......o+++++++++++o..........o+++++++++++o.....                 ......o+++++++++++o..........o+++++++++++o.....                 XXXXXXX+++#$%$#+++XXXXXXXXXXXX+++++++++++XXXXXX                 XXXXXXX+++++++++++XXXXXXXXXXXX+++++++++++XXXXXX        ",
"         .......oO+++++++Oo............oO+++++++Oo......                 .......oO+++++++Oo............oO+++++++Oo......                 XXXXXXXo@+++++++@oXXXXXXXXXXXXo@+++++++@oXXXXXX                 XXXXXXXo@+++++++@oXXXXXXXXXXXXo@+++++++@oXXXXXX        ",
"         .........oO+++Oo................oO+++Oo........                 .........oO+++Oo................oO+++Oo........                 XXXXXXXXXo@+++@oXXXXXXXXXXXXXXXXo@+++@oXXXXXXXX                 XXXXXXXXXo@+++@oXXXXXXXXXXXXXXXXo@+++@oXXXXXXXX        ",
"         ...............................................                 ...............................................                 XXXXXXXXXXXXXXXXXXXXXXXXXXXXXXXXXXXXXXXXXXXXXXX                 XXXXXXXXXXXXXXXXXXXXXXXXXXXXXXXXXXXXXXXXXXXXXXX        ",
"         ...............................................                 ...............................................                 XXXXXXXXXXXXXXXXXXXXXXXXXXXXXXXXXXXXXXXXXXXXXXX                 XXXXXXXXXXXXXXXXXXXXXXXXXXXXXXXXXXXXXXXXXXXXXXX        ",
"         ...............................................                 ...............................................                 XXXXXXXXXXXXXXXXXXXXXXXXXXXXXXXXXXXXXXXXXXXXXXX                 XXXXXXXXXXXXXXXXXXXXXXXXXXXXXXXXXXXXXXXXXXXXXXX        ",
"         ...............................................                 ...............................................                 XXXXXXXXXXXXXXXXXXXXXXXXXXXXXXXXXXXXXXXXXXXXXXX                 XXXXXXXXXXXXXXXXXXXXXXXXXXXXXXXXXXXXXXXXXXXXXXX        ",
"         ...............................................                 ...............................................                 XXXXXXXXXXXXXXXXXXXXXXXXXXXXXXXXXXXXXXXXXXXXXXX                 XXXXXXXXXXXXXXXXXXXXXXXXXXXXXXXXXXXXXXXXXXXXXXX        ",
"         ...............................................                 ...............................................                 XXXXXXXXXXXXXXXXXXXXXXXXXXXXXXXXXXXXXXXXXXXXXXX                 XXXXXXXXXXXXXXXXXXXXXXXXXXXXXXXXXXXXXXXXXXXXXXX        ",
"         ...............................................                 ...............................................                 XXXXXXXXXXXXXXXXXXXXXXXXXXXXXXXXXXXXXXXXXXXXXXX                 XXXXXXXXXXXXXXXXXXXXXXXXXXXXXXXXXXXXXXXXXXXXXXX        ",
"         ...............................................                 ...............................................                 XXXXXXXXXXXXXXXXXXXXXXXXXXXXXXXXXXXXXXXXXXXXXXX                 XXXXXXXXXXXXXXXXXXXXXXXXXXXXXXXXXXXXXXXXXXXXXXX        ",
"         ...............................................                 ...............................................                 XXXXXXXXXXXXXXXXXXXXXXXXXXXXXXXXXXXXXXXXXXXXXXX                 XXXXXXXXXXXXXXXXXXXXXXXXXXXXXXXXXXXXXXXXXXXXXXX        ",
"         ...............................................                 ...............................................                 XXXXXXXXXXXXXXXXXXXXXXXXXXXXXXXXXXXXXXXXXXXXXXX                 XXXXXXXXXXXXXXXXXXXXXXXXXXXXXXXXXXXXXXXXXXXXXXX        ",
"         ...............................................                 ...............................................                 XXXXXXXXXXXXXXXXXXXXXXXXXXXXXXXXXXXXXXXXXXXXXXX                 XXXXXXXXXXXXXXXXXXXXXXXXXXXXXXXXXXXXXXXXXXXXXXX        ",
"         ...............................................                 ...............................................                 XXXXXXXXXXXXXXXXXXXXXXXXXXXXXXXXXXXXXXXXXXXXXXX                 XXXXXXXXXXXXXXXXXXXXXXXXXXXXXXXXXXXXXXXXXXXXXXX        ",
"         ...............................................                 ...............................................                 XXXXXXXXXXXXXXXXXXXXXXXXXXXXXXXXXXXXXXXXXXXXXXX                 XXXXXXXXXXXXXXXXXXXXXXXXXXXXXXXXXXXXXXXXXXXXXXX        ",
"         ...............................................                 ...............................................                 XXXXXXXXXXXXXXXXXXXXXXXXXXXXXXXXXXXXXXXXXXXXXXX                 XXXXXXXXXXXXXXXXXXXXXXXXXXXXXXXXXXXXXXXXXXXXXXX        ",
"         ...............................................                 ...............................................                 XXXXXXXXXXXXXXXXXXXXXXXXXXXXXXXXXXXXXXXXXXXXXXX                 XXXXXXXXXXXXXXXXXXXXXXXXXXXXXXXXXXXXXXXXXXXXXXX        ",
"         ...............................................                 ...............................................                 XXXXXXXXXXXXXXXXXXXXXXXXXXXXXXXXXXXXXXXXXXXXXXX                 XXXXXXXXXXXXXXXXXXXXXXXXXXXXXXXXXXXXXXXXXXXXXXX        ",
"         ...............................................                 ...............................................                 XXXXXXXXXXXXXXXXXXXXXXXXXXXXXXXXXXXXXXXXXXXXXXX                 XXXXXXXXXXXXXXXXXXXXXXXXXXXXXXXXXXXXXXXXXXXXXXX        ",
"         ...............................................                 ...............................................                 XXXXXXXXXXXXXXXXXXXXXXXXXXXXXXXXXXXXXXXXXXXXXXX                 XXXXXXXXXXXXXXXXXXXXXXXXXXXXXXXXXXXXXXXXXXXXXXX        ",
"         ...............................................                 ...............................................                 XXXXXXXXXXXXXXXXXXXXXXXXXXXXXXXXXXXXXXXXXXXXXXX                 XXXXXXXXXXXXXXXXXXXXXXXXXXXXXXXXXXXXXXXXXXXXXXX        ",
"         ...............................................                 ...............................................                 XXXXXXXXXXXXXXXXXXXXXXXXXXXXXXXXXXXXXXXXXXXXXXX                 XXXXXXXXXXXXXXXXXXXXXXXXXXXXXXXXXXXXXXXXXXXXXXX        ",
"         ...............................................                 ...............................................                 XXXXXXXXXXXXXXXXXXXXXXXXXXXXXXXXXXXXXXXXXXXXXXX                 XXXXXXXXXXXXXXXXXXXXXXXXXXXXXXXXXXXXXXXXXXXXXXX        ",
"         ...............................................                 ...............................................                 XXXXXXXXXXXXXXXXXXXXXXXXXXXXXXXXXXXXXXXXXXXXXXX                 XXXXXXXXXXXXXXXXXXXXXXXXXXXXXXXXXXXXXXXXXXXXXXX        ",
"         =..............................................                 ...............................................                 XXXXXXXXXXXXXXXXXXXXXXXXXXXXXXXXXXXXXXXXXXXXXXX                 XXXXXXXXXXXXXXXXXXXXXXXXXXXXXXXXXXXXXXXXXXXXXXX        ",
"         =.............................................=                 ...............................................                 XXXXXXXXXXXXXXXXXXXXXXXXXXXXXXXXXXXXXXXXXXXXXXX                 XXXXXXXXXXXXXXXXXXXXXXXXXXXXXXXXXXXXXXXXXXXXXXX        ",
"          =...........................................=                  ..=    =.......................................                  XXXXXXXXXXXXXXXXXXXXXXXXXXXXXXXXXXXXXXXXXXXXX                  XXX    XXXXXXXXXXXXXXXXXXXXXXXXXXXXXXXXXXXXXXXX        ",
"           =........=     =..............==    =....==                   .=       =...........==        ==.............=                   XXXXXXXXXX     XXXXXXXXXXXXXXXXX    XXXXXXX                   XX       XXXXXXXXXXXXXX        XXXXXXXXXXXXXXXX        ",
"            =....=            =.......==                                            ==.....==              ==.......==                      XXXXXX            XXXXXXXXXX                                            XXXXXXXXX              XXXXXXXXXXX          ",
"                                                                                                                                                                                                                                                                ",
"             $$$$---;;;;;;;;;;;;;;;;;;;;;;;;;;;;;;;;;;;;;---$;               $$$$---;;;;;;;;;;;;;;;;;;;;;;;;;;;;;;;;;;;;;---$;               $$$$---;;;;;;;;;;;;;;;;;;;;;;;;;;;;;;;;;;;;;---$;               $$$$---;;;;;;;;;;;;;;;;;;;;;;;;;;;;;;;;;;;;;---$;  ",
"            $$-;;;%%%%%%%%%%%%%%%%%%%%%%%%%%%%%%%%%%%%%%%%%%%;$             $$-;;;%%%%%%%%%%%%%%%%%%%%%%%%%%%%%%%%%%%%%%%%%%%;$             $$-;;;%%%%%%%%%%%%%%%%%%%%%%%%%%%%%%%%%%%%%%%%%%%;$             $$-;;;%%%%%%%%%%%%%%%%%%%%%%%%%%%%%%%%%%%%%%%%%%%;$ ",
"            $$-;;;%%%%%%%%%%%%%%%%%%%%%%%%%%%%%%%%%%%%%%%%%%%;$             $$-;;;%%%%%%%%%%%%%%%%%%%%%%%%%%%%%%%%%%%%%%%%%%%;$             $$-;;;%%%%%%%%%%%%%%%%%%%%%%%%%%%%%%%%%%%%%%%%%%%;$             $$-;;;%%%%%%%%%%%%%%%%%%%%%%%%%%%%%%%%%%%%%%%%%%%;$ ",
"               $$$$---;;;;;;;;;;;;;;;;;;;;;;;;;;;;;;;;;;;;;;$$                 $$$$---;;;;;;;;;;;;;;;;;;;;;;;;;;;;;;;;;;;;;;$$                 $$$$---;;;;;;;;;;;;;;;;;;;;;;;;;;;;;;;;;;;;;;$$                 $$$$---;;;;;;;;;;;;;;;;;;;;;;;;;;;;;;;;;;;;;;$$  "
};
